<svg width="48" height="48" viewBox="0 0 24 24" fill="none" xmlns="http://www.w3.org/2000/svg">
<path d="M9 12C9 13.3807 10.1193 14.5 11.5 14.5C12.8807 14.5 14 13.3807 14 12C14 10.6193 12.8807 9.5 11.5 9.5C10.1193 9.5 9 10.6193 9 12Z" stroke="#6366f1" stroke-width="2" fill="#6366f1" fill-opacity="0.1"/>
<path d="M21 12C21 16.9706 16.9706 21 12 21C7.02944 21 3 16.9706 3 12C3 7.02944 7.02944 3 12 3C16.9706 3 21 7.02944 21 12Z" stroke="#6366f1" stroke-width="2"/>
<path d="M12 9.5V6.5" stroke="#6366f1" stroke-width="2" stroke-linecap="round"/>
<path d="M12 14.5V17.5" stroke="#6366f1" stroke-width="2" stroke-linecap="round"/>
<path d="M16.5 12H19.5" stroke="#6366f1" stroke-width="2" stroke-linecap="round"/>
<path d="M9 12H6" stroke="#6366f1" stroke-width="2" stroke-linecap="round"/>
</svg>
